<svg xmlns="http://www.w3.org/2000/svg" version="1.1" width="1075" height="1785" preserveAspectRatio="none" style="stroke-width: 2px; font-size: 11px; font-family: sans-serif; shape-rendering: crispedges;" id="SVG" viewBox="-20 -46.5 1161 1858"><rect id="backgroundRect" x="-20" y="-46.5" width="1161" height="1858" fill="white"></rect><path d="M 1074.9999999999998 1785 H 1073.486513303142 V 1729.21875" fill="none" stroke="black" stroke-width="2" class="treeEdge" vector-effect="non-scaling-stroke" id="node#25"></path><path d="M 1074.9999999999998 1673.4375 H 1073.486513303142 V 1729.21875" fill="none" stroke="black" stroke-width="2" class="treeEdge" vector-effect="non-scaling-stroke" id="node#26"></path><path d="M 1074.9999999999998 1450.3125 H 970.3849638325424 V 1506.09375" fill="none" stroke="black" stroke-width="2" class="treeEdge" vector-effect="non-scaling-stroke" id="node#29"></path><path d="M 1074.9999999999998 1227.1875 H 667.4446871870305 V 1352.6953125" fill="none" stroke="black" stroke-width="2" class="treeEdge" vector-effect="non-scaling-stroke" id="node#20"></path><path d="M 1075 1004.0625 H 1061.3043082262393 V 948.28125" fill="none" stroke="black" stroke-width="2" class="treeEdge" vector-effect="non-scaling-stroke" id="node#35"></path><path d="M 1075 669.375 H 1070.735728776228 V 669.375" fill="none" stroke="black" stroke-width="2" class="treeEdge" vector-effect="non-scaling-stroke" id="node#16"></path><path d="M 1075 446.25 H 262.19762475081967 V 592.67578125" fill="none" stroke="black" stroke-width="2" class="treeEdge" vector-effect="non-scaling-stroke" id="node#39"></path><path d="M 1075 334.6875 H 885.524394413192 V 278.90625" fill="none" stroke="black" stroke-width="2" class="treeEdge" vector-effect="non-scaling-stroke" id="node#9"></path><path d="M 1075 223.125 H 885.524394413192 V 278.90625" fill="none" stroke="black" stroke-width="2" class="treeEdge" vector-effect="non-scaling-stroke" id="node#10"></path><path d="M 1074.9999999999998 111.5625 H 1068.057968174717 V 55.78125" fill="none" stroke="black" stroke-width="2" class="treeEdge" vector-effect="non-scaling-stroke" id="node#5"></path><path d="M 1074.9999999999998 0 H 1068.057968174717 V 55.78125" fill="none" stroke="black" stroke-width="2" class="treeEdge" vector-effect="non-scaling-stroke" id="node#6"></path><path d="M 1073.486513303142 1729.21875 H 974.9212676639833 V 1729.21875" fill="none" stroke="black" stroke-width="2" class="treeEdge" vector-effect="non-scaling-stroke" id="node#24"></path><path d="M 974.9212676639833 1729.21875 H 721.1089130599678 V 1617.65625" fill="none" stroke="black" stroke-width="2" class="treeEdge" vector-effect="non-scaling-stroke" id="node#23"></path><path d="M 970.3849638325424 1506.09375 H 843.8713823007663 V 1506.09375" fill="none" stroke="black" stroke-width="2" class="treeEdge" vector-effect="non-scaling-stroke" id="node#28"></path><path d="M 843.8713823007663 1506.09375 H 721.1089130599678 V 1617.65625" fill="none" stroke="black" stroke-width="2" class="treeEdge" vector-effect="non-scaling-stroke" id="node#27"></path><path d="M 721.1089130599678 1617.65625 H 676.4893359785005 V 1478.203125" fill="none" stroke="black" stroke-width="2" class="treeEdge" vector-effect="non-scaling-stroke" id="node#22"></path><path d="M 676.4893359785005 1478.203125 H 667.4446871870305 V 1352.6953125" fill="none" stroke="black" stroke-width="2" class="treeEdge" vector-effect="non-scaling-stroke" id="node#21"></path><path d="M 667.4446871870305 1352.6953125 H 611.1258111482368 V 1352.6953125" fill="none" stroke="black" stroke-width="2" class="treeEdge" vector-effect="non-scaling-stroke" id="node#19"></path><path d="M 611.1258111482368 1352.6953125 H 537.3644190156533 V 1171.40625" fill="none" stroke="black" stroke-width="2" class="treeEdge" vector-effect="non-scaling-stroke" id="node#18"></path><path d="M 1061.3043082262393 948.28125 H 544.9741318947425 V 864.609375" fill="none" stroke="black" stroke-width="2" class="treeEdge" vector-effect="non-scaling-stroke" id="node#34"></path><path d="M 544.9741318947425 864.609375 H 543.5993467081212 V 990.1171875" fill="none" stroke="black" stroke-width="2" class="treeEdge" vector-effect="non-scaling-stroke" id="node#33"></path><path d="M 543.5993467081212 990.1171875 H 537.3644190156533 V 1171.40625" fill="none" stroke="black" stroke-width="2" class="treeEdge" vector-effect="non-scaling-stroke" id="node#32"></path><path d="M 537.3644190156533 1171.40625 H 489.7677648124612 V 920.390625" fill="none" stroke="black" stroke-width="2" class="treeEdge" vector-effect="non-scaling-stroke" id="node#17"></path><path d="M 1070.735728776228 669.375 H 489.7677648124612 V 920.390625" fill="none" stroke="black" stroke-width="2" class="treeEdge" vector-effect="non-scaling-stroke" id="node#15"></path><path d="M 489.7677648124612 920.390625 H 376.09337940904743 V 739.1015625" fill="none" stroke="black" stroke-width="2" class="treeEdge" vector-effect="non-scaling-stroke" id="node#14"></path><path d="M 376.09337940904743 739.1015625 H 262.19762475081967 V 592.67578125" fill="none" stroke="black" stroke-width="2" class="treeEdge" vector-effect="non-scaling-stroke" id="node#12"></path><path d="M 262.19762475081967 592.67578125 H 10.643564356435654 V 380.009765625" fill="none" stroke="black" stroke-width="2" class="treeEdge" vector-effect="non-scaling-stroke" id="node#11"></path><path d="M 885.524394413192 278.90625 H 786.9744849298248 V 278.90625" fill="none" stroke="black" stroke-width="2" class="treeEdge" vector-effect="non-scaling-stroke" id="node#8"></path><path d="M 786.9744849298248 278.90625 H 757.7383790736685 V 167.34375" fill="none" stroke="black" stroke-width="2" class="treeEdge" vector-effect="non-scaling-stroke" id="node#7"></path><path d="M 1068.057968174717 55.78125 H 757.7383790736685 V 167.34375" fill="none" stroke="black" stroke-width="2" class="treeEdge" vector-effect="non-scaling-stroke" id="node#4"></path><path d="M 757.7383790736685 167.34375 H 638.5168230624538 V 167.34375" fill="none" stroke="black" stroke-width="2" class="treeEdge" vector-effect="non-scaling-stroke" id="node#3"></path><path d="M 638.5168230624538 167.34375 H 10.643564356435654 V 380.009765625" fill="none" stroke="black" stroke-width="2" class="treeEdge" vector-effect="non-scaling-stroke" id="node#2"></path><path d="M 10.643564356435654 380.009765625 H 10.643564356435654 V 380.009765625" fill="none" stroke="black" stroke-width="2" class="treeEdge" vector-effect="non-scaling-stroke" id="node#1"></path><path d="M 10.643564356435654 380.009765625 H 0 V 380.009765625" fill="none" stroke="black" stroke-width="2" class="treeEdge" vector-effect="non-scaling-stroke" id="node#0"></path><path d="M 611.1258111482368 1352.6953125 L 611.1258111482368 1115.625 H 543.5993467081212 V 990.1171875" fill="none" stroke="black" stroke-width="2" class="treeEdge" vector-effect="non-scaling-stroke" stroke-dasharray="6, 2" id="node#38"></path><ellipse cx="611.1258111482368" cy="1352.6953125" rx="2.9506148721743877" ry="2.843781736954047" shape-rendering="auto" fill="black" class="nodeMark"></ellipse><path d="M 974.9212676639833 1729.21875 L 974.9212676639835 1561.875 H 970.3849638325424 V 1506.09375" fill="none" stroke="black" stroke-width="2" class="treeEdge" vector-effect="non-scaling-stroke" stroke-dasharray="6, 2" id="node#30"></path><ellipse cx="974.9212676639833" cy="1729.21875" rx="2.9506148721743877" ry="2.843781736954047" shape-rendering="auto" fill="black" class="nodeMark"></ellipse><path d="M 843.8713823007663 1506.09375 L 843.8713823007663 1338.75 H 676.4893359785005 V 1478.203125" fill="none" stroke="black" stroke-width="2" class="treeEdge" vector-effect="non-scaling-stroke" stroke-dasharray="6, 2" id="node#31"></path><ellipse cx="843.8713823007663" cy="1506.09375" rx="2.9506148721743877" ry="2.843781736954047" shape-rendering="auto" fill="black" class="nodeMark"></ellipse><path d="M 1070.735728776228 669.375 L 1070.735728776228 892.5 H 1061.3043082262393 V 948.28125" fill="none" stroke="black" stroke-width="2" class="treeEdge" vector-effect="non-scaling-stroke" stroke-dasharray="6, 2" id="node#36"></path><ellipse cx="1070.735728776228" cy="669.375" rx="2.9506148721743877" ry="2.843781736954047" shape-rendering="auto" fill="black" class="nodeMark"></ellipse><path d="M 638.5168230624538 167.34375 L 638.5168230624538 557.8125 H 376.09337940904743 V 739.1015625" fill="none" stroke="black" stroke-width="2" class="treeEdge" vector-effect="non-scaling-stroke" stroke-dasharray="6, 2" id="node#13"></path><ellipse cx="638.5168230624538" cy="167.34375" rx="2.9506148721743877" ry="2.843781736954047" shape-rendering="auto" fill="black" class="nodeMark"></ellipse><path d="M 786.9744849298248 278.90625 L 786.9744849298248 780.9375 H 544.9741318947425 V 864.609375" fill="none" stroke="black" stroke-width="2" class="treeEdge" vector-effect="non-scaling-stroke" stroke-dasharray="6, 2" id="node#37"></path><ellipse cx="786.9744849298248" cy="278.90625" rx="2.9506148721743877" ry="2.843781736954047" shape-rendering="auto" fill="black" class="nodeMark"></ellipse><text x="1074.9999999999998" y="1785" dominant-baseline="central" transform="matrix(1.08, 0, 0, 1.0409, 0, 0) matrix(1, 0, 0, 1, -79.6296, -70.1319)">abui-f</text><text x="1074.9999999999998" y="1673.4375" dominant-baseline="central" transform="matrix(1.08, 0, 0, 1.0409, 0, 0) matrix(1, 0, 0, 1, -79.6296, -65.7486)">abui-p</text><text x="1074.9999999999998" y="1450.3125" dominant-baseline="central" transform="matrix(1.08, 0, 0, 1.0409, 0, 0) matrix(1, 0, 0, 1, -79.6296, -56.9821)">abui-a</text><text x="1074.9999999999998" y="1227.1875" dominant-baseline="central" transform="matrix(1.08, 0, 0, 1.0409, 0, 0) matrix(1, 0, 0, 1, -79.6296, -48.2157)">kafoa</text><text x="1075" y="1004.0625" dominant-baseline="central" transform="matrix(1.08, 0, 0, 1.0409, 0, 0) matrix(1, 0, 0, 1, -79.6296, -39.4492)">abui-u</text><text x="1075" y="669.375" dominant-baseline="central" transform="matrix(1.08, 0, 0, 1.0409, 0, 0) matrix(1, 0, 0, 1, -79.6296, -26.2994)">abui-t</text><text x="1075" y="446.25" dominant-baseline="central" transform="matrix(1.08, 0, 0, 1.0409, 0, 0) matrix(1, 0, 0, 1, -79.6296, -17.533)">kamang</text><text x="1075" y="334.6875" dominant-baseline="central" transform="matrix(1.08, 0, 0, 1.0409, 0, 0) matrix(1, 0, 0, 1, -79.6296, -13.1497)">kiraman</text><text x="1075" y="223.125" dominant-baseline="central" transform="matrix(1.08, 0, 0, 1.0409, 0, 0) matrix(1, 0, 0, 1, -79.6296, -8.76648)">kui</text><text x="1074.9999999999998" y="111.5625" dominant-baseline="central" transform="matrix(1.08, 0, 0, 1.0409, 0, 0) matrix(1, 0, 0, 1, -79.6296, -4.38324)">klon-h</text><text x="1074.9999999999998" y="0" dominant-baseline="central" transform="matrix(1.08, 0, 0, 1.0409, 0, 0) matrix(1, 0, 0, 1, -79.6296, -0)">klon-b</text></svg>