<svg xmlns="http://www.w3.org/2000/svg" version="1.1" width="1913" height="1016" preserveAspectRatio="none" id="SVG" style="stroke-width: 4px; font-size: 15px; font-family: sans-serif; shape-rendering: crispedges;" viewBox="-20 -49 2046.21875 1094"><rect id="backgroundRect" x="-20" y="-49" width="2046.21875" height="1094" fill="white"></rect><path d="M 1912.9995178408692 1016 H 1856.13407173355 V 1004.9565217391304" fill="none" stroke="black" stroke-width="4" class="treeEdge" vector-effect="non-scaling-stroke" id="node#111"></path><path d="M 1912.9995178408692 993.9130434782609 H 1856.13407173355 V 1004.9565217391304" fill="none" stroke="black" stroke-width="4" class="treeEdge" vector-effect="non-scaling-stroke" id="node#112"></path><path d="M 1912.9994776609417 971.8260869565217 H 1868.0839438154367 V 971.8260869565217" fill="none" stroke="black" stroke-width="4" class="treeEdge" vector-effect="non-scaling-stroke" id="node#114"></path><path d="M 1912.9999156221518 662.6086956521739 H 1910.8665904931972 V 651.5652173913043" fill="none" stroke="black" stroke-width="4" class="treeEdge" vector-effect="non-scaling-stroke" id="node#80"></path><path d="M 1912.9999156221518 640.5217391304348 H 1910.8665904931972 V 651.5652173913043" fill="none" stroke="black" stroke-width="4" class="treeEdge" vector-effect="non-scaling-stroke" id="node#81"></path><path d="M 1912.9999156221522 618.4347826086957 H 1909.5902911655635 V 635" fill="none" stroke="black" stroke-width="4" class="treeEdge" vector-effect="non-scaling-stroke" id="node#78"></path><path d="M 1912.999919640145 596.3478260869565 H 1904.443282622387 V 615.6739130434783" fill="none" stroke="black" stroke-width="4" class="treeEdge" vector-effect="non-scaling-stroke" id="node#82"></path><path d="M 1913 485.9130434782609 H 1858.43324754958 V 496.9565217391304" fill="none" stroke="black" stroke-width="4" class="treeEdge" vector-effect="non-scaling-stroke" id="node#70"></path><path d="M 1912.9996383806515 309.21739130434787 H 1874.669514305789 V 309.21739130434787" fill="none" stroke="black" stroke-width="4" class="treeEdge" vector-effect="non-scaling-stroke" id="node#35"></path><path d="M 1912.9995580207965 287.13043478260875 H 1866.924431465309 V 298.17391304347825" fill="none" stroke="black" stroke-width="4" class="treeEdge" vector-effect="non-scaling-stroke" id="node#33"></path><path d="M 1912.9995178408687 265.0434782608696 H 1910.7376691775612 V 254" fill="none" stroke="black" stroke-width="4" class="treeEdge" vector-effect="non-scaling-stroke" id="node#37"></path><path d="M 1912.9995178408687 242.95652173913038 H 1910.7376691775612 V 254" fill="none" stroke="black" stroke-width="4" class="treeEdge" vector-effect="non-scaling-stroke" id="node#38"></path><path d="M 1912.9997468664558 220.86956521739128 H 1791.332917155328 V 220.86956521739128" fill="none" stroke="black" stroke-width="4" class="treeEdge" vector-effect="non-scaling-stroke" id="node#29"></path><path d="M 1856.13407173355 1004.9565217391304 H 1850.5188063143462 V 988.3913043478261" fill="none" stroke="black" stroke-width="4" class="treeEdge" vector-effect="non-scaling-stroke" id="node#110"></path><path d="M 1868.0839438154367 971.8260869565217 H 1850.5188063143462 V 988.3913043478261" fill="none" stroke="black" stroke-width="4" class="treeEdge" vector-effect="non-scaling-stroke" id="node#113"></path><path d="M 1850.5188063143462 988.3913043478261 H 1749.6679916850183 V 988.3913043478261" fill="none" stroke="black" stroke-width="4" class="treeEdge" vector-effect="non-scaling-stroke" id="node#109"></path><path d="M 1749.6679916850183 988.3913043478261 H 1732.706838855323 V 963.5434782608696" fill="none" stroke="black" stroke-width="4" class="treeEdge" vector-effect="non-scaling-stroke" id="node#108"></path><path d="M 1744.2831179705634 938.695652173913 H 1732.706838855323 V 963.5434782608696" fill="none" stroke="black" stroke-width="4" class="treeEdge" vector-effect="non-scaling-stroke" id="node#105"></path><path d="M 1732.706838855323 963.5434782608696 H 1653.7331911952047 V 963.5434782608696" fill="none" stroke="black" stroke-width="4" class="treeEdge" vector-effect="non-scaling-stroke" id="node#104"></path><path d="M 1653.7331911952047 963.5434782608696 H 1604.270494945377 V 929.0326086956521" fill="none" stroke="black" stroke-width="4" class="treeEdge" vector-effect="non-scaling-stroke" id="node#103"></path><path d="M 1735.6214908020363 905.5652173913043 H 1706.4834091196951 V 894.5217391304348" fill="none" stroke="black" stroke-width="4" class="treeEdge" vector-effect="non-scaling-stroke" id="node#100"></path><path d="M 1706.4834091196951 894.5217391304348 H 1604.270494945377 V 929.0326086956521" fill="none" stroke="black" stroke-width="4" class="treeEdge" vector-effect="non-scaling-stroke" id="node#99"></path><path d="M 1604.270494945377 929.0326086956521 H 1570.7777127118259 V 871.7445652173913" fill="none" stroke="black" stroke-width="4" class="treeEdge" vector-effect="non-scaling-stroke" id="node#98"></path><path d="M 1634.9412198753253 850.3478260869565 H 1618.5613902378695 V 850.3478260869565" fill="none" stroke="black" stroke-width="4" class="treeEdge" vector-effect="non-scaling-stroke" id="node#121"></path><path d="M 1618.5613902378695 850.3478260869565 H 1605.3952315681836 V 833.7826086956521" fill="none" stroke="black" stroke-width="4" class="treeEdge" vector-effect="non-scaling-stroke" id="node#120"></path><path d="M 1668.3455259083437 817.2173913043479 H 1605.3952315681836 V 833.7826086956521" fill="none" stroke="black" stroke-width="4" class="treeEdge" vector-effect="non-scaling-stroke" id="node#118"></path><path d="M 1605.3952315681836 833.7826086956521 H 1572.0536865820468 V 814.4565217391304" fill="none" stroke="black" stroke-width="4" class="treeEdge" vector-effect="non-scaling-stroke" id="node#117"></path><path d="M 1572.0536865820468 814.4565217391304 H 1570.7777127118259 V 871.7445652173913" fill="none" stroke="black" stroke-width="4" class="treeEdge" vector-effect="non-scaling-stroke" id="node#115"></path><path d="M 1570.7777127118259 871.7445652173913 H 1526.3592045704959 V 871.7445652173913" fill="none" stroke="black" stroke-width="4" class="treeEdge" vector-effect="non-scaling-stroke" id="node#97"></path><path d="M 1526.3592045704959 871.7445652173913 H 1499.0714889131073 V 808.5896739130435" fill="none" stroke="black" stroke-width="4" class="treeEdge" vector-effect="non-scaling-stroke" id="node#96"></path><path d="M 1596.0570346890872 762 H 1591.701088560122 V 745.4347826086957" fill="none" stroke="black" stroke-width="4" class="treeEdge" vector-effect="non-scaling-stroke" id="node#93"></path><path d="M 1591.701088560122 745.4347826086957 H 1499.0714889131073 V 808.5896739130435" fill="none" stroke="black" stroke-width="4" class="treeEdge" vector-effect="non-scaling-stroke" id="node#91"></path><path d="M 1499.0714889131073 808.5896739130435 H 1488.30817027261 V 757.6861413043479" fill="none" stroke="black" stroke-width="4" class="treeEdge" vector-effect="non-scaling-stroke" id="node#90"></path><path d="M 1488.30817027261 757.6861413043479 H 1357.8885451372746 V 721.1908967391304" fill="none" stroke="black" stroke-width="4" class="treeEdge" vector-effect="non-scaling-stroke" id="node#89"></path><path d="M 1357.8885451372746 721.1908967391304 H 1264.0137695345302 V 592.8104619565217" fill="none" stroke="black" stroke-width="4" class="treeEdge" vector-effect="non-scaling-stroke" id="node#88"></path><path d="M 1910.8665904931972 651.5652173913043 H 1909.5902911655635 V 635" fill="none" stroke="black" stroke-width="4" class="treeEdge" vector-effect="non-scaling-stroke" id="node#79"></path><path d="M 1909.5902911655635 635 H 1904.443282622387 V 615.6739130434783" fill="none" stroke="black" stroke-width="4" class="treeEdge" vector-effect="non-scaling-stroke" id="node#77"></path><path d="M 1904.443282622387 615.6739130434783 H 1792.9379565964507 V 594.9673913043479" fill="none" stroke="black" stroke-width="4" class="treeEdge" vector-effect="non-scaling-stroke" id="node#76"></path><path d="M 1792.9379565964507 594.9673913043479 H 1768.624238638812 V 594.9673913043479" fill="none" stroke="black" stroke-width="4" class="treeEdge" vector-effect="non-scaling-stroke" id="node#74"></path><path d="M 1768.624238638812 594.9673913043479 H 1632.2306618707587 V 568.0489130434783" fill="none" stroke="black" stroke-width="4" class="treeEdge" vector-effect="non-scaling-stroke" id="node#73"></path><path d="M 1734.6472882779115 541.1304347826087 H 1673.9137205423858 V 541.1304347826087" fill="none" stroke="black" stroke-width="4" class="treeEdge" vector-effect="non-scaling-stroke" id="node#85"></path><path d="M 1673.9137205423858 541.1304347826087 H 1653.1575735526815 V 541.1304347826087" fill="none" stroke="black" stroke-width="4" class="treeEdge" vector-effect="non-scaling-stroke" id="node#84"></path><path d="M 1653.1575735526815 541.1304347826087 H 1632.2306618707587 V 568.0489130434783" fill="none" stroke="black" stroke-width="4" class="treeEdge" vector-effect="non-scaling-stroke" id="node#83"></path><path d="M 1632.2306618707587 568.0489130434783 H 1626.8638691237152 V 532.5027173913043" fill="none" stroke="black" stroke-width="4" class="treeEdge" vector-effect="non-scaling-stroke" id="node#72"></path><path d="M 1858.43324754958 496.9565217391304 H 1751.8053629326807 V 496.9565217391304" fill="none" stroke="black" stroke-width="4" class="treeEdge" vector-effect="non-scaling-stroke" id="node#69"></path><path d="M 1751.8053629326807 496.9565217391304 H 1718.0060078516876 V 496.9565217391304" fill="none" stroke="black" stroke-width="4" class="treeEdge" vector-effect="non-scaling-stroke" id="node#68"></path><path d="M 1718.0060078516876 496.9565217391304 H 1627.004498870248 V 496.9565217391304" fill="none" stroke="black" stroke-width="4" class="treeEdge" vector-effect="non-scaling-stroke" id="node#67"></path><path d="M 1627.004498870248 496.9565217391304 H 1626.8638691237152 V 532.5027173913043" fill="none" stroke="black" stroke-width="4" class="treeEdge" vector-effect="non-scaling-stroke" id="node#66"></path><path d="M 1626.8638691237152 532.5027173913043 H 1611.1841345444277 V 532.5027173913043" fill="none" stroke="black" stroke-width="4" class="treeEdge" vector-effect="non-scaling-stroke" id="node#65"></path><path d="M 1611.1841345444277 532.5027173913043 H 1523.9571279599313 V 498.16440217391306" fill="none" stroke="black" stroke-width="4" class="treeEdge" vector-effect="non-scaling-stroke" id="node#64"></path><path d="M 1612.377880192854 463.82608695652175 H 1523.9571279599313 V 498.16440217391306" fill="none" stroke="black" stroke-width="4" class="treeEdge" vector-effect="non-scaling-stroke" id="node#62"></path><path d="M 1523.9571279599313 498.16440217391306 H 1501.9106829558236 V 464.43002717391306" fill="none" stroke="black" stroke-width="4" class="treeEdge" vector-effect="non-scaling-stroke" id="node#61"></path><path d="M 1700.291441199924 441.7391304347827 H 1570.277633333155 V 430.69565217391306" fill="none" stroke="black" stroke-width="4" class="treeEdge" vector-effect="non-scaling-stroke" id="node#59"></path><path d="M 1570.277633333155 430.69565217391306 H 1501.9106829558236 V 464.43002717391306" fill="none" stroke="black" stroke-width="4" class="treeEdge" vector-effect="non-scaling-stroke" id="node#57"></path><path d="M 1501.9106829558236 464.43002717391306 H 1381.1141504760967 V 464.43002717391306" fill="none" stroke="black" stroke-width="4" class="treeEdge" vector-effect="non-scaling-stroke" id="node#56"></path><path d="M 1381.1141504760967 464.43002717391306 H 1264.0137695345302 V 592.8104619565217" fill="none" stroke="black" stroke-width="4" class="treeEdge" vector-effect="non-scaling-stroke" id="node#55"></path><path d="M 1264.0137695345302 592.8104619565217 H 1223.5212421171227 V 592.8104619565217" fill="none" stroke="black" stroke-width="4" class="treeEdge" vector-effect="non-scaling-stroke" id="node#54"></path><path d="M 1223.5212421171227 592.8104619565217 H 1197.4307275819322 V 592.8104619565217" fill="none" stroke="black" stroke-width="4" class="treeEdge" vector-effect="non-scaling-stroke" id="node#53"></path><path d="M 1197.4307275819322 592.8104619565217 H 1096.324770412466 V 495.18783967391306" fill="none" stroke="black" stroke-width="4" class="treeEdge" vector-effect="non-scaling-stroke" id="node#52"></path><path d="M 1096.324770412466 495.18783967391306 H 1042.3876374272375 V 335.40251358695645" fill="none" stroke="black" stroke-width="4" class="treeEdge" vector-effect="non-scaling-stroke" id="node#50"></path><path d="M 1874.669514305789 309.21739130434787 H 1866.924431465309 V 298.17391304347825" fill="none" stroke="black" stroke-width="4" class="treeEdge" vector-effect="non-scaling-stroke" id="node#34"></path><path d="M 1866.924431465309 298.17391304347825 H 1861.5397586504916 V 276.0869565217391" fill="none" stroke="black" stroke-width="4" class="treeEdge" vector-effect="non-scaling-stroke" id="node#32"></path><path d="M 1910.7376691775612 254 H 1861.5397586504916 V 276.0869565217391" fill="none" stroke="black" stroke-width="4" class="treeEdge" vector-effect="non-scaling-stroke" id="node#36"></path><path d="M 1861.5397586504916 276.0869565217391 H 1819.29538639056 V 276.0869565217391" fill="none" stroke="black" stroke-width="4" class="treeEdge" vector-effect="non-scaling-stroke" id="node#31"></path><path d="M 1819.29538639056 276.0869565217391 H 1748.7924710630318 V 248.4782608695652" fill="none" stroke="black" stroke-width="4" class="treeEdge" vector-effect="non-scaling-stroke" id="node#30"></path><path d="M 1791.332917155328 220.86956521739128 H 1753.2785077435253 V 220.86956521739128" fill="none" stroke="black" stroke-width="4" class="treeEdge" vector-effect="non-scaling-stroke" id="node#28"></path><path d="M 1753.2785077435253 220.86956521739128 H 1750.1549724072975 V 220.86956521739128" fill="none" stroke="black" stroke-width="4" class="treeEdge" vector-effect="non-scaling-stroke" id="node#27"></path><path d="M 1750.1549724072975 220.86956521739128 H 1748.7924710630318 V 248.4782608695652" fill="none" stroke="black" stroke-width="4" class="treeEdge" vector-effect="non-scaling-stroke" id="node#26"></path><path d="M 1748.7924710630318 248.4782608695652 H 1743.2505741915909 V 248.4782608695652" fill="none" stroke="black" stroke-width="4" class="treeEdge" vector-effect="non-scaling-stroke" id="node#25"></path><path d="M 1743.2505741915909 248.4782608695652 H 1730.751362139819 V 218.10869565217394" fill="none" stroke="black" stroke-width="4" class="treeEdge" vector-effect="non-scaling-stroke" id="node#24"></path><path d="M 1773.2552967319227 187.73913043478254 H 1730.751362139819 V 218.10869565217394" fill="none" stroke="black" stroke-width="4" class="treeEdge" vector-effect="non-scaling-stroke" id="node#21"></path><path d="M 1730.751362139819 218.10869565217394 H 1558.7185914068473 V 274.7065217391304" fill="none" stroke="black" stroke-width="4" class="treeEdge" vector-effect="non-scaling-stroke" id="node#20"></path><path d="M 1558.7185914068473 274.7065217391304 H 1534.6729941059555 V 274.7065217391304" fill="none" stroke="black" stroke-width="4" class="treeEdge" vector-effect="non-scaling-stroke" id="node#18"></path><path d="M 1534.6729941059555 274.7065217391304 H 1474.2660891816622 V 214.65760869565216" fill="none" stroke="black" stroke-width="4" class="treeEdge" vector-effect="non-scaling-stroke" id="node#17"></path><path d="M 1474.2660891816622 214.65760869565216 H 1339.5556495799701 V 284.0244565217391" fill="none" stroke="black" stroke-width="4" class="treeEdge" vector-effect="non-scaling-stroke" id="node#16"></path><path d="M 1339.5556495799701 284.0244565217391 H 1316.14963636631 V 194.46875" fill="none" stroke="black" stroke-width="4" class="treeEdge" vector-effect="non-scaling-stroke" id="node#14"></path><path d="M 1572.2109709085616 132.5217391304348 H 1565.9009141816302 V 121.4782608695653" fill="none" stroke="black" stroke-width="4" class="treeEdge" vector-effect="non-scaling-stroke" id="node#42"></path><path d="M 1728.5110900976224 110.43478260869568 H 1565.9009141816302 V 121.4782608695653" fill="none" stroke="black" stroke-width="4" class="treeEdge" vector-effect="non-scaling-stroke" id="node#44"></path><path d="M 1565.9009141816302 121.4782608695653 H 1541.885291106714 V 104.913043478261" fill="none" stroke="black" stroke-width="4" class="treeEdge" vector-effect="non-scaling-stroke" id="node#41"></path><path d="M 1607.6369299978094 88.34782608695657 H 1598.9636908302116 V 88.34782608695657" fill="none" stroke="black" stroke-width="4" class="treeEdge" vector-effect="non-scaling-stroke" id="node#47"></path><path d="M 1598.9636908302116 88.34782608695657 H 1541.885291106714 V 104.913043478261" fill="none" stroke="black" stroke-width="4" class="treeEdge" vector-effect="non-scaling-stroke" id="node#46"></path><path d="M 1541.885291106714 104.913043478261 H 1316.14963636631 V 194.46875" fill="none" stroke="black" stroke-width="4" class="treeEdge" vector-effect="non-scaling-stroke" id="node#40"></path><path d="M 1316.14963636631 194.46875 H 1223.2178836638873 V 284.97350543478257" fill="none" stroke="black" stroke-width="4" class="treeEdge" vector-effect="non-scaling-stroke" id="node#13"></path><path d="M 1223.2178836638873 284.97350543478257 H 1195.0098869451874 V 284.97350543478257" fill="none" stroke="black" stroke-width="4" class="treeEdge" vector-effect="non-scaling-stroke" id="node#11"></path><path d="M 1195.0098869451874 284.97350543478257 H 1182.092040227951 V 175.6171875" fill="none" stroke="black" stroke-width="4" class="treeEdge" vector-effect="non-scaling-stroke" id="node#10"></path><path d="M 1182.092040227951 175.6171875 H 1042.3876374272375 V 335.40251358695645" fill="none" stroke="black" stroke-width="4" class="treeEdge" vector-effect="non-scaling-stroke" id="node#9"></path><path d="M 1042.3876374272375 335.40251358695645 H 778.2560438905937 V 189.78821331521735" fill="none" stroke="black" stroke-width="4" class="treeEdge" vector-effect="non-scaling-stroke" id="node#8"></path><path d="M 1107.9946285790418 44.17391304347823 H 778.2560438905937 V 189.78821331521735" fill="none" stroke="black" stroke-width="4" class="treeEdge" vector-effect="non-scaling-stroke" id="node#6"></path><path d="M 778.2560438905937 189.78821331521735 H 317.3882565457323 V 189.78821331521735" fill="none" stroke="black" stroke-width="4" class="treeEdge" vector-effect="non-scaling-stroke" id="node#5"></path><path d="M 317.3882565457323 189.78821331521735 H 286.1367106726397 V 105.93758491847824" fill="none" stroke="black" stroke-width="4" class="treeEdge" vector-effect="non-scaling-stroke" id="node#4"></path><path d="M 286.1367106726397 105.93758491847824 H 127.1985783382597 V 105.93758491847824" fill="none" stroke="black" stroke-width="4" class="treeEdge" vector-effect="non-scaling-stroke" id="node#3"></path><path d="M 127.1985783382597 105.93758491847824 H 120.36758885024281 V 52.96879245923912" fill="none" stroke="black" stroke-width="4" class="treeEdge" vector-effect="non-scaling-stroke" id="node#2"></path><path d="M 120.36758885024281 52.96879245923912 H 18.940594059405957 V 52.96879245923912" fill="none" stroke="black" stroke-width="4" class="treeEdge" vector-effect="non-scaling-stroke" id="node#1"></path><path d="M 18.940594059405957 52.96879245923912 H 0 V 52.96879245923912" fill="none" stroke="black" stroke-width="4" class="treeEdge" vector-effect="non-scaling-stroke" id="node#0"></path><path d="M 127.1985783382597 105.93758491847824 L 127.19865869811473 0 H 120.36758885024281 V 52.96879245923912" fill="none" stroke="black" stroke-width="1.3702824608674165" class="treeEdge" vector-effect="non-scaling-stroke" stroke-dasharray="12, 4" id="node#127"></path><ellipse cx="127.1985783382597" cy="105.93758491847824" rx="4.759346230849773" ry="4.791084427760627" shape-rendering="auto" fill="black" class="nodeMark"></ellipse><path d="M 317.3882565457323 189.78821331521735 L 317.38829672565987 22.086956521739115 H 286.1367106726397 V 105.93758491847824" fill="none" stroke="black" stroke-width="4" class="treeEdge" vector-effect="non-scaling-stroke" stroke-dasharray="12, 4" id="node#126"></path><ellipse cx="317.3882565457323" cy="189.78821331521735" rx="4.759346230849773" ry="4.791084427760627" shape-rendering="auto" fill="black" class="nodeMark"></ellipse><path d="M 1197.4307275819322 592.8104619565217 L 1197.4307275819324 44.17391304347823 H 1107.9946285790418 V 44.17391304347823" fill="none" stroke="black" stroke-width="3.806934346396073" class="treeEdge" vector-effect="non-scaling-stroke" stroke-dasharray="12, 4" id="node#7"></path><ellipse cx="1197.4307275819322" cy="592.8104619565217" rx="4.759346230849773" ry="4.791084427760627" shape-rendering="auto" fill="black" class="nodeMark"></ellipse><path d="M 1223.5212421171227 592.8104619565217 L 1223.5212421171227 375.4782608695652 H 1223.2178836638873 V 284.97350543478257" fill="none" stroke="black" stroke-width="2.266892251652868" class="treeEdge" vector-effect="non-scaling-stroke" stroke-dasharray="12, 4" id="node#12"></path><ellipse cx="1223.5212421171227" cy="592.8104619565217" rx="4.759346230849773" ry="4.791084427760627" shape-rendering="auto" fill="black" class="nodeMark"></ellipse><path d="M 1526.3592045704959 871.7445652173913 L 1526.3593652902064 706.7826086956521 H 1488.30817027261 V 757.6861413043479" fill="none" stroke="black" stroke-width="2.4346686410543046" class="treeEdge" vector-effect="non-scaling-stroke" stroke-dasharray="12, 4" id="node#124"></path><ellipse cx="1526.3592045704959" cy="871.7445652173913" rx="4.759346230849773" ry="4.791084427760627" shape-rendering="auto" fill="black" class="nodeMark"></ellipse><path d="M 1653.7331911952047 963.5434782608696 L 1653.73327155506 331.30434782608694 H 1558.7185914068473 V 274.7065217391304" fill="none" stroke="black" stroke-width="1.1484728822702341" class="treeEdge" vector-effect="non-scaling-stroke" stroke-dasharray="12, 4" id="node#19"></path><ellipse cx="1653.7331911952047" cy="963.5434782608696" rx="4.759346230849773" ry="4.791084427760627" shape-rendering="auto" fill="black" class="nodeMark"></ellipse><path d="M 1749.6679916850183 988.3913043478261 L 1749.6685542040038 552.1739130434783 H 1734.6472882779115 V 541.1304347826087" fill="none" stroke="black" stroke-width="2.031345959666983" class="treeEdge" vector-effect="non-scaling-stroke" stroke-dasharray="12, 4" id="node#87"></path><ellipse cx="1749.6679916850183" cy="988.3913043478261" rx="4.759346230849773" ry="4.791084427760627" shape-rendering="auto" fill="black" class="nodeMark"></ellipse><path d="M 1868.0839438154367 971.8260869565217 L 1868.0844661544952 508 H 1858.43324754958 V 496.9565217391304" fill="none" stroke="black" stroke-width="1.8611305292542508" class="treeEdge" vector-effect="non-scaling-stroke" stroke-dasharray="12, 4" id="node#71"></path><ellipse cx="1868.0839438154367" cy="971.8260869565217" rx="4.759346230849773" ry="4.791084427760627" shape-rendering="auto" fill="black" class="nodeMark"></ellipse><path d="M 1735.6214908020363 905.5652173913043 L 1735.6216515217466 883.4782608695652 H 1706.4834091196951 V 894.5217391304348" fill="none" stroke="black" stroke-width="3.869490984833353" class="treeEdge" vector-effect="non-scaling-stroke" stroke-dasharray="12, 4" id="node#102"></path><ellipse cx="1735.6214908020363" cy="905.5652173913043" rx="4.759346230849773" ry="4.791084427760627" shape-rendering="auto" fill="black" class="nodeMark"></ellipse><path d="M 1618.5613902378695 850.3478260869565 L 1618.5614906876883 88.34782608695657 H 1607.6369299978094 V 88.34782608695657" fill="none" stroke="black" stroke-width="2.3995741211777135" class="treeEdge" vector-effect="non-scaling-stroke" stroke-dasharray="12, 4" id="node#48"></path><ellipse cx="1618.5613902378695" cy="850.3478260869565" rx="4.759346230849773" ry="4.791084427760627" shape-rendering="auto" fill="black" class="nodeMark"></ellipse><path d="M 1668.3455259083437 817.2173913043479 L 1668.3457067180177 463.82608695652175 H 1612.377880192854 V 463.82608695652175" fill="none" stroke="black" stroke-width="2.6806280340600432" class="treeEdge" vector-effect="non-scaling-stroke" stroke-dasharray="12, 4" id="node#63"></path><ellipse cx="1668.3455259083437" cy="817.2173913043479" rx="4.759346230849773" ry="4.791084427760627" shape-rendering="auto" fill="black" class="nodeMark"></ellipse><path d="M 1381.1141504760967 464.43002717391306 L 1381.1141504760967 353.39130434782606 H 1339.5556495799701 V 284.0244565217391" fill="none" stroke="black" stroke-width="3.829152025216432" class="treeEdge" vector-effect="non-scaling-stroke" stroke-dasharray="12, 4" id="node#15"></path><ellipse cx="1381.1141504760967" cy="464.43002717391306" rx="4.759346230849773" ry="4.791084427760627" shape-rendering="auto" fill="black" class="nodeMark"></ellipse><path d="M 1611.1841345444277 532.5027173913043 L 1611.1843354440657 728.8695652173914 H 1591.701088560122 V 745.4347826086957" fill="none" stroke="black" stroke-width="2.45804413754904" class="treeEdge" vector-effect="non-scaling-stroke" stroke-dasharray="12, 4" id="node#92"></path><ellipse cx="1611.1841345444277" cy="532.5027173913043" rx="4.759346230849773" ry="4.791084427760627" shape-rendering="auto" fill="black" class="nodeMark"></ellipse><path d="M 1768.624238638812 594.9673913043479 L 1768.6240779191016 905.5652173913043 H 1735.6214908020363 V 905.5652173913043" fill="none" stroke="black" stroke-width="1.2293437308270896" class="treeEdge" vector-effect="non-scaling-stroke" stroke-dasharray="12, 4" id="node#101"></path><ellipse cx="1768.624238638812" cy="594.9673913043479" rx="4.759346230849773" ry="4.791084427760627" shape-rendering="auto" fill="black" class="nodeMark"></ellipse><path d="M 1653.1575735526815 541.1304347826087 L 1653.1575333727542 773.0434782608696 H 1596.0570346890872 V 762" fill="none" stroke="black" stroke-width="3.3453889373502728" class="treeEdge" vector-effect="non-scaling-stroke" stroke-dasharray="12, 4" id="node#94"></path><ellipse cx="1653.1575735526815" cy="541.1304347826087" rx="4.759346230849773" ry="4.791084427760627" shape-rendering="auto" fill="black" class="nodeMark"></ellipse><path d="M 1673.9137205423858 541.1304347826087 L 1673.913539732712 817.2173913043479 H 1668.3455259083437 V 817.2173913043479" fill="none" stroke="black" stroke-width="1.194223867389315" class="treeEdge" vector-effect="non-scaling-stroke" stroke-dasharray="12, 4" id="node#119"></path><ellipse cx="1673.9137205423858" cy="541.1304347826087" rx="4.759346230849773" ry="4.791084427760627" shape-rendering="auto" fill="black" class="nodeMark"></ellipse><path d="M 1627.004498870248 496.9565217391304 L 1627.0044586903205 684.695652173913 H 1357.8885451372746 V 721.1908967391304" fill="none" stroke="black" stroke-width="1.569046297813383" class="treeEdge" vector-effect="non-scaling-stroke" stroke-dasharray="12, 4" id="node#125"></path><ellipse cx="1627.004498870248" cy="496.9565217391304" rx="4.759346230849773" ry="4.791084427760627" shape-rendering="auto" fill="black" class="nodeMark"></ellipse><path d="M 1718.0060078516876 496.9565217391304 L 1718.0059877617236 861.3913043478261 H 1634.9412198753253 V 850.3478260869565" fill="none" stroke="black" stroke-width="2.325168791148141" class="treeEdge" vector-effect="non-scaling-stroke" stroke-dasharray="12, 4" id="node#123"></path><ellipse cx="1718.0060078516876" cy="496.9565217391304" rx="4.759346230849773" ry="4.791084427760627" shape-rendering="auto" fill="black" class="nodeMark"></ellipse><path d="M 1751.8053629326807 496.9565217391304 L 1751.8052022129705 949.7391304347826 H 1744.2831179705634 V 938.695652173913" fill="none" stroke="black" stroke-width="1.8191850480862262" class="treeEdge" vector-effect="non-scaling-stroke" stroke-dasharray="12, 4" id="node#106"></path><ellipse cx="1751.8053629326807" cy="496.9565217391304" rx="4.759346230849773" ry="4.791084427760627" shape-rendering="auto" fill="black" class="nodeMark"></ellipse><path d="M 1612.377880192854 463.82608695652175 L 1612.3774583036145 795.1304347826087 H 1572.0536865820468 V 814.4565217391304" fill="none" stroke="black" stroke-width="1.7455269151257689" class="treeEdge" vector-effect="non-scaling-stroke" stroke-dasharray="12, 4" id="node#116"></path><ellipse cx="1612.377880192854" cy="463.82608695652175" rx="4.759346230849773" ry="4.791084427760627" shape-rendering="auto" fill="black" class="nodeMark"></ellipse><path d="M 1700.291441199924 441.7391304347827 L 1700.291461289888 839.304347826087 H 1634.9412198753253 V 850.3478260869565" fill="none" stroke="black" stroke-width="1.6360214685910066" class="treeEdge" vector-effect="non-scaling-stroke" stroke-dasharray="12, 4" id="node#122"></path><ellipse cx="1700.291441199924" cy="441.7391304347827" rx="4.759346230849773" ry="4.791084427760627" shape-rendering="auto" fill="black" class="nodeMark"></ellipse><path d="M 1195.0098869451874 284.97350543478257 L 1195.0097262254767 66.26086956521735 H 1182.092040227951 V 175.6171875" fill="none" stroke="black" stroke-width="1.0639426391634172" class="treeEdge" vector-effect="non-scaling-stroke" stroke-dasharray="12, 4" id="node#49"></path><ellipse cx="1195.0098869451874" cy="284.97350543478257" rx="4.759346230849773" ry="4.791084427760627" shape-rendering="auto" fill="black" class="nodeMark"></ellipse><path d="M 1534.6729941059555 274.7065217391304 L 1534.6729941059555 154.60869565217394 H 1474.2660891816622 V 214.65760869565216" fill="none" stroke="black" stroke-width="3.1095364669407295" class="treeEdge" vector-effect="non-scaling-stroke" stroke-dasharray="12, 4" id="node#39"></path><ellipse cx="1534.6729941059555" cy="274.7065217391304" rx="4.759346230849773" ry="4.791084427760627" shape-rendering="auto" fill="black" class="nodeMark"></ellipse><path d="M 1743.2505741915909 248.4782608695652 L 1743.2506947313734 110.43478260869568 H 1728.5110900976224 V 110.43478260869568" fill="none" stroke="black" stroke-width="2.0302520427186614" class="treeEdge" vector-effect="non-scaling-stroke" stroke-dasharray="12, 4" id="node#45"></path><ellipse cx="1743.2505741915909" cy="248.4782608695652" rx="4.759346230849773" ry="4.791084427760627" shape-rendering="auto" fill="black" class="nodeMark"></ellipse><path d="M 1819.29538639056 276.0869565217391 L 1819.295466750415 176.69565217391303 H 1773.2552967319227 V 187.73913043478254" fill="none" stroke="black" stroke-width="2.820989534429393" class="treeEdge" vector-effect="non-scaling-stroke" stroke-dasharray="12, 4" id="node#23"></path><ellipse cx="1819.29538639056" cy="276.0869565217391" rx="4.759346230849773" ry="4.791084427760627" shape-rendering="auto" fill="black" class="nodeMark"></ellipse><path d="M 1874.669514305789 309.21739130434787 L 1874.6695544857173 574.2608695652175 H 1792.9379565964507 V 594.9673913043479" fill="none" stroke="black" stroke-width="3.7984401057739863" class="treeEdge" vector-effect="non-scaling-stroke" stroke-dasharray="12, 4" id="node#75"></path><ellipse cx="1874.669514305789" cy="309.21739130434787" rx="4.759346230849773" ry="4.791084427760627" shape-rendering="auto" fill="black" class="nodeMark"></ellipse><path d="M 1750.1549724072975 220.86956521739128 L 1750.1551733069357 530.0869565217391 H 1734.6472882779115 V 541.1304347826087" fill="none" stroke="black" stroke-width="2.893392734814082" class="treeEdge" vector-effect="non-scaling-stroke" stroke-dasharray="12, 4" id="node#86"></path><ellipse cx="1750.1549724072975" cy="220.86956521739128" rx="4.759346230849773" ry="4.791084427760627" shape-rendering="auto" fill="black" class="nodeMark"></ellipse><path d="M 1753.2785077435253 220.86956521739128 L 1753.2781983580833 927.6521739130435 H 1744.2831179705634 V 938.695652173913" fill="none" stroke="black" stroke-width="3.5807043645592262" class="treeEdge" vector-effect="non-scaling-stroke" stroke-dasharray="12, 4" id="node#107"></path><ellipse cx="1753.2785077435253" cy="220.86956521739128" rx="4.759346230849773" ry="4.791084427760627" shape-rendering="auto" fill="black" class="nodeMark"></ellipse><path d="M 1791.332917155328 220.86956521739128 L 1791.3330095691617 198.78260869565216 H 1773.2552967319227 V 187.73913043478254" fill="none" stroke="black" stroke-width="2.011735253780905" class="treeEdge" vector-effect="non-scaling-stroke" stroke-dasharray="12, 4" id="node#22"></path><ellipse cx="1791.332917155328" cy="220.86956521739128" rx="4.759346230849773" ry="4.791084427760627" shape-rendering="auto" fill="black" class="nodeMark"></ellipse><path d="M 1572.2109709085616 132.5217391304348 L 1572.2106896490686 419.65217391304344 H 1570.277633333155 V 430.69565217391306" fill="none" stroke="black" stroke-width="3.6585612316150975" class="treeEdge" vector-effect="non-scaling-stroke" stroke-dasharray="12, 4" id="node#58"></path><ellipse cx="1572.2109709085616" cy="132.5217391304348" rx="4.759346230849773" ry="4.791084427760627" shape-rendering="auto" fill="black" class="nodeMark"></ellipse><path d="M 1728.5110900976224 110.43478260869568 L 1728.5110097377676 441.7391304347827 H 1700.291441199924 V 441.7391304347827" fill="none" stroke="black" stroke-width="2.3293121774850567" class="treeEdge" vector-effect="non-scaling-stroke" stroke-dasharray="12, 4" id="node#60"></path><ellipse cx="1728.5110900976224" cy="110.43478260869568" rx="4.759346230849773" ry="4.791084427760627" shape-rendering="auto" fill="black" class="nodeMark"></ellipse><path d="M 1598.9636908302116 88.34782608695657 L 1598.9636506502843 750.9565217391304 H 1596.0570346890872 V 762" fill="none" stroke="black" stroke-width="2.8287621535866077" class="treeEdge" vector-effect="non-scaling-stroke" stroke-dasharray="12, 4" id="node#95"></path><ellipse cx="1598.9636908302116" cy="88.34782608695657" rx="4.759346230849773" ry="4.791084427760627" shape-rendering="auto" fill="black" class="nodeMark"></ellipse><path d="M 1607.6369299978094 88.34782608695657 L 1607.6371308974472 132.5217391304348 H 1572.2109709085616 V 132.5217391304348" fill="none" stroke="black" stroke-width="1.8754513587901074" class="treeEdge" vector-effect="non-scaling-stroke" stroke-dasharray="12, 4" id="node#43"></path><ellipse cx="1607.6369299978094" cy="88.34782608695657" rx="4.759346230849773" ry="4.791084427760627" shape-rendering="auto" fill="black" class="nodeMark"></ellipse><path d="M 1107.9946285790418 44.17391304347823 L 1107.9946285790418 397.5652173913043 H 1096.324770412466 V 495.18783967391306" fill="none" stroke="black" stroke-width="2.576393755080733" class="treeEdge" vector-effect="non-scaling-stroke" stroke-dasharray="12, 4" id="node#51"></path><ellipse cx="1107.9946285790418" cy="44.17391304347823" rx="4.759346230849773" ry="4.791084427760627" shape-rendering="auto" fill="black" class="nodeMark"></ellipse><text x="1912.9995178408692" y="1016" dominant-baseline="central" transform="matrix(1.06964 0 0 1.07677 0 0) matrix(1 0 0 1 -124.546 -72.4388)">Hamap</text><text x="1912.9995178408692" y="993.9130434782609" dominant-baseline="central" transform="matrix(1.06964 0 0 1.07677 0 0) matrix(1 0 0 1 -124.546 -70.864)">Kabola</text><text x="1912.9994776609417" y="971.8260869565217" dominant-baseline="central" transform="matrix(1.06964 0 0 1.07677 0 0) matrix(1 0 0 1 -124.546 -69.2892)">Kafoa</text><text x="1912.9999156221518" y="662.6086956521739" dominant-baseline="central" transform="matrix(1.06964 0 0 1.07677 0 0) matrix(1 0 0 1 -124.546 -47.2427)">A-Takalelang</text><text x="1912.9999156221518" y="640.5217391304348" dominant-baseline="central" transform="matrix(1.06964 0 0 1.07677 0 0) matrix(1 0 0 1 -124.546 -45.6679)">A-Atimelang</text><text x="1912.9999156221522" y="618.4347826086957" dominant-baseline="central" transform="matrix(1.06964 0 0 1.07677 0 0) matrix(1 0 0 1 -124.546 -44.0932)">A-Ulaga</text><text x="1912.999919640145" y="596.3478260869565" dominant-baseline="central" transform="matrix(1.06964 0 0 1.07677 0 0) matrix(1 0 0 1 -124.546 -42.5184)">A-Petleng</text><text x="1913" y="485.9130434782609" dominant-baseline="central" transform="matrix(1.06964 0 0 1.07677 0 0) matrix(1 0 0 1 -124.546 -34.6446)">Klon</text><text x="1912.9996383806515" y="309.21739130434787" dominant-baseline="central" transform="matrix(1.06964 0 0 1.07677 0 0) matrix(1 0 0 1 -124.546 -22.0466)">Papuna</text><text x="1912.9995580207965" y="287.13043478260875" dominant-baseline="central" transform="matrix(1.06964 0 0 1.07677 0 0) matrix(1 0 0 1 -124.546 -20.4718)">Kamang</text><text x="1912.9995178408687" y="265.0434782608696" dominant-baseline="central" transform="matrix(1.06964 0 0 1.07677 0 0) matrix(1 0 0 1 -124.546 -18.8971)">Tiyai</text><text x="1912.9995178408687" y="242.95652173913038" dominant-baseline="central" transform="matrix(1.06964 0 0 1.07677 0 0) matrix(1 0 0 1 -124.546 -17.3223)">Suboo</text><text x="1912.9997468664558" y="220.86956521739128" dominant-baseline="central" transform="matrix(1.06964 0 0 1.07677 0 0) matrix(1 0 0 1 -124.546 -15.7476)">Kui</text><text x="1751.8052022129705" y="949.7391304347826" dominant-baseline="central" transform="matrix(1.06964 0 0 1.07677 0 0) matrix(1 0 0 1 -114.051 -67.7145)">0.128</text><text x="1753.2781983580833" y="927.6521739130435" dominant-baseline="central" transform="matrix(1.06964 0 0 1.07677 0 0) matrix(1 0 0 1 -114.147 -66.1397)">0.405</text><text x="1768.6240779191016" y="905.5652173913043" dominant-baseline="central" transform="matrix(1.06964 0 0 1.07677 0 0) matrix(1 0 0 1 -115.146 -64.565)">0.036</text><text x="1735.6216515217466" y="883.4782608695652" dominant-baseline="central" transform="matrix(1.06964 0 0 1.07677 0 0) matrix(1 0 0 1 -112.997 -62.9902)">0.45</text><text x="1718.0059877617236" y="861.3913043478261" dominant-baseline="central" transform="matrix(1.06964 0 0 1.07677 0 0) matrix(1 0 0 1 -111.851 -61.4155)">0.208</text><text x="1700.291461289888" y="839.304347826087" dominant-baseline="central" transform="matrix(1.06964 0 0 1.07677 0 0) matrix(1 0 0 1 -110.697 -59.8407)">0.0997</text><text x="1673.913539732712" y="817.2173913043479" dominant-baseline="central" transform="matrix(1.06964 0 0 1.07677 0 0) matrix(1 0 0 1 -108.98 -58.266)">0.0304</text><text x="1612.3774583036145" y="795.1304347826087" dominant-baseline="central" transform="matrix(1.06964 0 0 1.07677 0 0) matrix(1 0 0 1 -104.974 -56.6912)">0.117</text><text x="1653.1575333727542" y="773.0434782608696" dominant-baseline="central" transform="matrix(1.06964 0 0 1.07677 0 0) matrix(1 0 0 1 -107.629 -55.1164)">0.368</text><text x="1598.9636506502843" y="750.9565217391304" dominant-baseline="central" transform="matrix(1.06964 0 0 1.07677 0 0) matrix(1 0 0 1 -104.1 -53.5417)">0.287</text><text x="1611.1843354440657" y="728.8695652173914" dominant-baseline="central" transform="matrix(1.06964 0 0 1.07677 0 0) matrix(1 0 0 1 -104.896 -51.9669)">0.229</text><text x="1526.3593652902064" y="706.7826086956521" dominant-baseline="central" transform="matrix(1.06964 0 0 1.07677 0 0) matrix(1 0 0 1 -99.3734 -50.3922)">0.225</text><text x="1627.0044586903205" y="684.695652173913" dominant-baseline="central" transform="matrix(1.06964 0 0 1.07677 0 0) matrix(1 0 0 1 -105.926 -48.8174)">0.0892</text><text x="1874.6695544857173" y="574.2608695652175" dominant-baseline="central" transform="matrix(1.06964 0 0 1.07677 0 0) matrix(1 0 0 1 -122.05 -40.9436)">0.439</text><text x="1749.6685542040038" y="552.1739130434783" dominant-baseline="central" transform="matrix(1.06964 0 0 1.07677 0 0) matrix(1 0 0 1 -113.912 -39.3689)">0.162</text><text x="1750.1551733069357" y="530.0869565217391" dominant-baseline="central" transform="matrix(1.06964 0 0 1.07677 0 0) matrix(1 0 0 1 -113.944 -37.7941)">0.297</text><text x="1868.0844661544952" y="508" dominant-baseline="central" transform="matrix(1.06964 0 0 1.07677 0 0) matrix(1 0 0 1 -121.621 -36.2194)">0.135</text><text x="1668.3457067180177" y="463.82608695652175" dominant-baseline="central" transform="matrix(1.06964 0 0 1.07677 0 0) matrix(1 0 0 1 -108.617 -33.0699)">0.263</text><text x="1728.5110097377676" y="441.7391304347827" dominant-baseline="central" transform="matrix(1.06964 0 0 1.07677 0 0) matrix(1 0 0 1 -112.534 -31.4951)">0.208</text><text x="1572.2106896490686" y="419.65217391304344" dominant-baseline="central" transform="matrix(1.06964 0 0 1.07677 0 0) matrix(1 0 0 1 -102.359 -29.9204)">0.417</text><text x="1107.9946285790418" y="397.5652173913043" dominant-baseline="central" transform="matrix(1.06964 0 0 1.07677 0 0) matrix(1 0 0 1 -72.1358 -28.3456)">0.247</text><text x="1223.5212421171227" y="375.4782608695652" dominant-baseline="central" transform="matrix(1.06964 0 0 1.07677 0 0) matrix(1 0 0 1 -79.6572 -26.7708)">0.199</text><text x="1381.1141504760967" y="353.39130434782606" dominant-baseline="central" transform="matrix(1.06964 0 0 1.07677 0 0) matrix(1 0 0 1 -89.9172 -25.1961)">0.444</text><text x="1653.73327155506" y="331.30434782608694" dominant-baseline="central" transform="matrix(1.06964 0 0 1.07677 0 0) matrix(1 0 0 1 -107.666 -23.6213)">0.0233</text><text x="1791.3330095691617" y="198.78260869565216" dominant-baseline="central" transform="matrix(1.06964 0 0 1.07677 0 0) matrix(1 0 0 1 -116.624 -14.1728)">0.159</text><text x="1819.295466750415" y="176.69565217391303" dominant-baseline="central" transform="matrix(1.06964 0 0 1.07677 0 0) matrix(1 0 0 1 -118.445 -12.598)">0.285</text><text x="1534.6729941059555" y="154.60869565217394" dominant-baseline="central" transform="matrix(1.06964 0 0 1.07677 0 0) matrix(1 0 0 1 -99.9146 -11.0233)">0.331</text><text x="1607.6371308974472" y="132.5217391304348" dominant-baseline="central" transform="matrix(1.06964 0 0 1.07677 0 0) matrix(1 0 0 1 -104.665 -9.44853)">0.137</text><text x="1743.2506947313734" y="110.43478260869568" dominant-baseline="central" transform="matrix(1.06964 0 0 1.07677 0 0) matrix(1 0 0 1 -113.494 -7.87378)">0.162</text><text x="1618.5614906876883" y="88.34782608695657" dominant-baseline="central" transform="matrix(1.06964 0 0 1.07677 0 0) matrix(1 0 0 1 -105.376 -6.29902)">0.219</text><text x="1195.0097262254767" y="66.26086956521735" dominant-baseline="central" transform="matrix(1.06964 0 0 1.07677 0 0) matrix(1 0 0 1 -77.8009 -4.72427)">0.01</text><text x="1197.4307275819324" y="44.17391304347823" dominant-baseline="central" transform="matrix(1.06964 0 0 1.07677 0 0) matrix(1 0 0 1 -77.9585 -3.14951)">0.44</text><text x="317.38829672565987" y="22.086956521739115" dominant-baseline="central" transform="matrix(1.06964 0 0 1.07677 0 0) matrix(1 0 0 1 -20.6635 -1.57476)">0.47</text><text x="127.19865869811473" y="0" dominant-baseline="central" transform="matrix(1.06964 0 0 1.07677 0 0) matrix(1 0 0 1 -8.28125 0)">0.058</text></svg>